<svg width="198" height="165" viewBox="0 0 198 165" fill="none" xmlns="http://www.w3.org/2000/svg">
<path d="M173.75 108V84.2888L198 108H173.75Z" fill="#D9D9D9"/>
<path d="M157.044 49.7999L109.622 0.222168L157.044 0.761057V49.7999Z" fill="#FBF7F6"/>
<path d="M111.239 108L109.622 0.222168L4 107.461L111.239 108Z" fill="#F3F3F3"/>
<path d="M131.178 22.8555L109.622 0.222168L110.161 43.8722L131.178 22.8555Z" fill="#D9D9D9"/>
<path d="M133.333 49.7999L145.728 37.9443L157.044 49.7999H133.333Z" fill="#D9D9D9"/>
<path d="M173.75 108L110.161 45.4888L111.239 108H173.75Z" fill="#D9D9D9"/>
<path d="M173.75 108V84.1831L148.961 83.75L173.75 108Z" fill="#F5F5F7"/>
<path d="M5.76 154C4.912 154 4.488 153.576 4.488 152.728V124.336C4.488 123.488 4.912 123.064 5.76 123.064C6.368 123.064 6.848 123.344 7.2 123.904L19.152 142.168L18.576 142.24L30.528 123.904C30.864 123.344 31.368 123.064 32.04 123.064C32.792 123.064 33.168 123.488 33.168 124.336V152.728C33.168 153.576 32.752 154 31.92 154C31.072 154 30.648 153.576 30.648 152.728V126.856L31.392 127.096L20.304 143.992C19.952 144.536 19.448 144.808 18.792 144.808C18.216 144.808 17.752 144.536 17.4 143.992L6.312 127.096L7.008 127.36V152.728C7.008 153.576 6.592 154 5.76 154ZM48.8726 154C46.3766 154 44.5446 153.424 43.3766 152.272C42.2246 151.104 41.6486 149.272 41.6486 146.776C41.6486 144.28 42.2326 142.448 43.4006 141.28C44.5686 140.112 46.3926 139.528 48.8726 139.528H59.7926C59.7606 137.416 59.2806 135.944 58.3526 135.112C57.4406 134.264 55.8806 133.84 53.6726 133.84H50.8886C48.8566 133.84 47.3686 134.056 46.4246 134.488C45.4806 134.92 44.8966 135.656 44.6726 136.696C44.5606 137.096 44.4086 137.392 44.2166 137.584C44.0406 137.76 43.7526 137.848 43.3526 137.848C42.9366 137.848 42.6086 137.736 42.3686 137.512C42.1446 137.272 42.0646 136.952 42.1286 136.552C42.3366 134.728 43.1606 133.4 44.6006 132.568C46.0566 131.736 48.1526 131.32 50.8886 131.32H53.6726C56.6646 131.32 58.8486 132.016 60.2246 133.408C61.6166 134.784 62.3126 136.968 62.3126 139.96V152.728C62.3126 153.576 61.8966 154 61.0646 154C60.2166 154 59.7926 153.576 59.7926 152.728V150.352C58.2566 152.784 55.5126 154 51.5606 154H48.8726ZM48.8726 151.48H51.5606C53.1126 151.48 54.4726 151.312 55.6406 150.976C56.8246 150.624 57.7766 150.064 58.4966 149.296C59.2166 148.528 59.6486 147.504 59.7926 146.224V142.048H48.8726C47.0966 142.048 45.8646 142.392 45.1766 143.08C44.5046 143.752 44.1686 144.984 44.1686 146.776C44.1686 148.552 44.5046 149.784 45.1766 150.472C45.8646 151.144 47.0966 151.48 48.8726 151.48ZM79.1063 153.04C78.9303 153.424 78.7143 153.68 78.4583 153.808C78.2023 153.936 77.9063 154 77.5703 154C76.8663 154 76.3703 153.672 76.0823 153.016L67.1783 133.072C66.8423 132.288 67.0743 131.744 67.8743 131.44C68.6263 131.12 69.1703 131.344 69.5063 132.112L78.3863 151.984H76.8503L86.3063 132.088C86.4823 131.72 86.7143 131.48 87.0023 131.368C87.2903 131.256 87.6183 131.28 87.9863 131.44C88.7703 131.792 88.9863 132.352 88.6343 133.12L79.1063 153.04ZM95.3756 143.632V145.384C95.3756 147.64 95.8236 149.224 96.7196 150.136C97.6316 151.032 99.2316 151.48 101.52 151.48H105.456C107.472 151.48 108.936 151.224 109.848 150.712C110.776 150.184 111.328 149.28 111.504 148C111.568 147.6 111.696 147.296 111.888 147.088C112.096 146.88 112.408 146.776 112.824 146.776C113.24 146.776 113.552 146.896 113.76 147.136C113.984 147.36 114.072 147.68 114.024 148.096C113.816 150.112 113.008 151.6 111.6 152.56C110.192 153.52 108.144 154 105.456 154H101.52C98.5276 154 96.3356 153.312 94.9436 151.936C93.5516 150.544 92.8556 148.36 92.8556 145.384V139.96C92.8556 136.936 93.5516 134.736 94.9436 133.36C96.3356 131.968 98.5276 131.288 101.52 131.32H105.456C108.448 131.32 110.632 132.016 112.008 133.408C113.4 134.784 114.096 136.968 114.096 139.96V142.36C114.096 143.208 113.68 143.632 112.848 143.632H95.3756ZM101.52 133.84C99.2316 133.808 97.6316 134.248 96.7196 135.16C95.8236 136.056 95.3756 137.656 95.3756 139.96V141.112H111.576V139.96C111.576 137.672 111.128 136.08 110.232 135.184C109.336 134.288 107.744 133.84 105.456 133.84H101.52ZM123.698 154C122.85 154 122.426 153.576 122.426 152.728V132.568C122.426 131.736 122.85 131.32 123.698 131.32C124.53 131.32 124.946 131.736 124.946 132.568V136.264C125.778 134.664 126.978 133.44 128.546 132.592C130.13 131.744 132.002 131.32 134.162 131.32C135.01 131.32 135.434 131.736 135.434 132.568C135.434 133.416 135.01 133.84 134.162 133.84C131.314 133.84 129.106 134.488 127.538 135.784C125.97 137.064 125.106 138.896 124.946 141.28V152.728C124.946 153.576 124.53 154 123.698 154ZM141.239 126.952C140.135 126.952 139.583 126.384 139.583 125.248V124.168C139.583 123.064 140.135 122.512 141.239 122.512H142.319C143.391 122.512 143.927 123.064 143.927 124.168V125.248C143.927 126.384 143.391 126.952 142.319 126.952H141.239ZM141.791 154C140.943 154 140.519 153.576 140.519 152.728V132.568C140.519 131.736 140.943 131.32 141.791 131.32C142.623 131.32 143.039 131.736 143.039 132.568V152.728C143.039 153.576 142.623 154 141.791 154ZM160.02 154C157.028 154 154.836 153.304 153.444 151.912C152.052 150.52 151.356 148.328 151.356 145.336V139.912C151.356 136.92 152.044 134.736 153.42 133.36C154.812 131.968 157.012 131.288 160.02 131.32H163.956C166.308 131.32 168.1 131.72 169.332 132.52C170.58 133.304 171.324 134.544 171.564 136.24C171.612 136.672 171.516 137 171.276 137.224C171.052 137.448 170.732 137.56 170.316 137.56C169.932 137.56 169.644 137.464 169.452 137.272C169.26 137.064 169.116 136.768 169.02 136.384C168.844 135.456 168.372 134.8 167.604 134.416C166.836 134.032 165.62 133.84 163.956 133.84H160.02C157.732 133.808 156.132 134.24 155.22 135.136C154.324 136.016 153.876 137.608 153.876 139.912V145.336C153.876 147.624 154.324 149.224 155.22 150.136C156.132 151.032 157.732 151.48 160.02 151.48H163.956C165.62 151.48 166.836 151.288 167.604 150.904C168.372 150.52 168.844 149.856 169.02 148.912C169.116 148.528 169.26 148.24 169.452 148.048C169.644 147.84 169.932 147.736 170.316 147.736C170.732 147.736 171.052 147.856 171.276 148.096C171.516 148.32 171.612 148.64 171.564 149.056C171.324 150.752 170.58 152 169.332 152.8C168.1 153.6 166.308 154 163.956 154H160.02ZM180.698 154C179.85 154 179.426 153.576 179.426 152.728V121.96C179.426 121.128 179.85 120.712 180.698 120.712C181.53 120.712 181.946 121.128 181.946 121.96V141.904L194.138 131.44C194.746 130.896 195.33 130.936 195.89 131.56C196.434 132.184 196.394 132.776 195.77 133.336L186.938 140.944L196.538 151.84C197.098 152.464 197.058 153.056 196.418 153.616C195.81 154.16 195.226 154.12 194.666 153.496L184.994 142.6L181.946 145.216V152.728C181.946 153.576 181.53 154 180.698 154Z" fill="#B5B5B5"/>
</svg>
